<!-- Placeholder SVG for tourist attractions -->
<svg width="800" height="600" viewBox="0 0 800 600" fill="none" xmlns="http://www.w3.org/2000/svg">
  <!-- Background -->
  <rect width="800" height="600" fill="#f3f4f6"/>
  
  <!-- Mountain silhouette -->
  <path d="M0 400 L150 300 L300 350 L450 250 L600 320 L750 280 L800 300 L800 600 L0 600 Z" fill="#e5e7eb"/>
  
  <!-- Sun -->
  <circle cx="650" cy="150" r="60" fill="#fbbf24"/>
  
  <!-- Building silhouette -->
  <rect x="100" y="350" width="80" height="100" fill="#9ca3af"/>
  <rect x="200" y="320" width="60" height="130" fill="#9ca3af"/>
  <rect x="280" y="340" width="70" height="110" fill="#9ca3af"/>
  <rect x="370" y="360" width="50" height="90" fill="#9ca3af"/>
  
  <!-- Temple/pagoda silhouette -->
  <polygon points="500,350 520,330 540,350 560,330 580,350 580,400 500,400" fill="#9ca3af"/>
  <rect x="520" y="400" width="40" height="50" fill="#9ca3af"/>
  
  <!-- Camera icon in center -->
  <g transform="translate(375, 275)">
    <rect x="0" y="10" width="50" height="35" rx="5" fill="#6b7280"/>
    <rect x="5" y="5" width="40" height="5" rx="2" fill="#6b7280"/>
    <circle cx="25" cy="27.5" r="12" fill="#374151"/>
    <circle cx="25" cy="27.5" r="8" fill="#9ca3af"/>
    <rect x="40" y="20" width="6" height="4" rx="1" fill="#374151"/>
  </g>
  
  <!-- Text -->
  <text x="400" y="380" text-anchor="middle" fill="#6b7280" font-family="Arial" font-size="16" font-weight="500">
    Hình ảnh địa điểm du lịch
  </text>
</svg>
